<?xml version="1.0" encoding="UTF-8" standalone="no"?><!DOCTYPE svg PUBLIC "-//W3C//DTD SVG 1.1//EN" "http://www.w3.org/Graphics/SVG/1.1/DTD/svg11.dtd"><!-- Generated by graphviz version 2.40.1 (20161225.0304)
 --><!-- Title: %0 Pages: 1 --><svg xmlns="http://www.w3.org/2000/svg" xmlns:xlink="http://www.w3.org/1999/xlink" width="666pt" height="332pt" viewBox="0.00 0.00 666.03 332.00">
<g id="graph0" class="graph" transform="scale(1 1) rotate(0) translate(4 328)">
<title>%0</title>
<polygon fill="#ffffff" stroke="transparent" points="-4,4 -4,-328 662.0342,-328 662.0342,4 -4,4"/>
<!-- [root] data.grafana_user.admin (expand) -->
<g id="node1" class="node">
<title>[root] data.grafana_user.admin (expand)</title>
<polygon fill="none" stroke="#000000" points="358.8956,-108 205.6938,-108 205.6938,-72 358.8956,-72 358.8956,-108"/>
<text text-anchor="middle" x="282.2947" y="-85.8" font-family="Times,serif" font-size="14.00" fill="#000000">data.grafana_user.admin</text>
</g>
<!-- [root] provider[&quot;registry.terraform.io/grafana/grafana&quot;] -->
<g id="node4" class="node">
<title>[root] provider["registry.terraform.io/grafana/grafana"]</title>
<polygon fill="none" stroke="#000000" points="282.2947,-36 .2052,-18 282.2947,0 564.3842,-18 282.2947,-36"/>
<text text-anchor="middle" x="282.2947" y="-13.8" font-family="Times,serif" font-size="14.00" fill="#000000">provider["registry.terraform.io/grafana/grafana"]</text>
</g>
<!-- [root] data.grafana_user.admin (expand)&#45;&gt;[root] provider[&quot;registry.terraform.io/grafana/grafana&quot;] -->
<g id="edge1" class="edge">
<title>[root] data.grafana_user.admin (expand)-&gt;[root] provider["registry.terraform.io/grafana/grafana"]</title>
<path fill="none" stroke="#000000" d="M282.2947,-71.8314C282.2947,-64.131 282.2947,-54.9743 282.2947,-46.4166"/>
<polygon fill="#000000" stroke="#000000" points="285.7948,-46.4132 282.2947,-36.4133 278.7948,-46.4133 285.7948,-46.4132"/>
</g>
<!-- [root] grafana_team.admins (expand) -->
<g id="node2" class="node">
<title>[root] grafana_team.admins (expand)</title>
<polygon fill="none" stroke="#000000" points="492.4105,-180 356.1788,-180 356.1788,-144 492.4105,-144 492.4105,-180"/>
<text text-anchor="middle" x="424.2947" y="-157.8" font-family="Times,serif" font-size="14.00" fill="#000000">grafana_team.admins</text>
</g>
<!-- [root] grafana_user.najme (expand) -->
<g id="node3" class="node">
<title>[root] grafana_user.najme (expand)</title>
<polygon fill="none" stroke="#000000" points="503.2899,-108 377.2995,-108 377.2995,-72 503.2899,-72 503.2899,-108"/>
<text text-anchor="middle" x="440.2947" y="-85.8" font-family="Times,serif" font-size="14.00" fill="#000000">grafana_user.najme</text>
</g>
<!-- [root] grafana_team.admins (expand)&#45;&gt;[root] grafana_user.najme (expand) -->
<g id="edge2" class="edge">
<title>[root] grafana_team.admins (expand)-&gt;[root] grafana_user.najme (expand)</title>
<path fill="none" stroke="#000000" d="M428.3322,-143.8314C430.0434,-136.131 432.0782,-126.9743 433.9799,-118.4166"/>
<polygon fill="#000000" stroke="#000000" points="437.4501,-118.9344 436.2029,-108.4133 430.6168,-117.4159 437.4501,-118.9344"/>
</g>
<!-- [root] grafana_user.najme (expand)&#45;&gt;[root] provider[&quot;registry.terraform.io/grafana/grafana&quot;] -->
<g id="edge3" class="edge">
<title>[root] grafana_user.najme (expand)-&gt;[root] provider["registry.terraform.io/grafana/grafana"]</title>
<path fill="none" stroke="#000000" d="M400.4246,-71.8314C377.8468,-61.5427 349.5642,-48.6545 326.3339,-38.0685"/>
<polygon fill="#000000" stroke="#000000" points="327.599,-34.7988 317.0479,-33.8369 324.6962,-41.1686 327.599,-34.7988"/>
</g>
<!-- [root] var.g_pass -->
<g id="node5" class="node">
<title>[root] var.g_pass</title>
<polygon fill="none" stroke="#000000" points="652.2752,-36 582.3142,-36 582.3142,0 658.2752,0 658.2752,-30 652.2752,-36"/>
<polyline fill="none" stroke="#000000" points="652.2752,-36 652.2752,-30 "/>
<polyline fill="none" stroke="#000000" points="658.2752,-30 652.2752,-30 "/>
<text text-anchor="middle" x="620.2947" y="-13.8" font-family="Times,serif" font-size="14.00" fill="#000000">var.g_pass</text>
</g>
<!-- [root] grafana_user.najme (expand)&#45;&gt;[root] var.g_pass -->
<g id="edge4" class="edge">
<title>[root] grafana_user.najme (expand)-&gt;[root] var.g_pass</title>
<path fill="none" stroke="#000000" d="M485.7163,-71.8314C512.3374,-61.1829 545.92,-47.7499 572.8783,-36.9666"/>
<polygon fill="#000000" stroke="#000000" points="574.5005,-40.0874 582.4854,-33.1237 571.9007,-33.588 574.5005,-40.0874"/>
</g>
<!-- [root] provider[&quot;registry.terraform.io/grafana/grafana&quot;] (close) -->
<g id="node6" class="node">
<title>[root] provider["registry.terraform.io/grafana/grafana"] (close)</title>
<ellipse fill="none" stroke="#000000" cx="361.2947" cy="-234" rx="252.8936" ry="18"/>
<text text-anchor="middle" x="361.2947" y="-229.8" font-family="Times,serif" font-size="14.00" fill="#000000">[root] provider["registry.terraform.io/grafana/grafana"] (close)</text>
</g>
<!-- [root] provider[&quot;registry.terraform.io/grafana/grafana&quot;] (close)&#45;&gt;[root] data.grafana_user.admin (expand) -->
<g id="edge5" class="edge">
<title>[root] provider["registry.terraform.io/grafana/grafana"] (close)-&gt;[root] data.grafana_user.admin (expand)</title>
<path fill="none" stroke="#000000" d="M351.2893,-215.7623C337.6366,-190.8764 313.062,-146.0822 297.226,-117.2165"/>
<polygon fill="#000000" stroke="#000000" points="300.0973,-115.1735 292.2189,-108.0896 293.9602,-118.5404 300.0973,-115.1735"/>
</g>
<!-- [root] provider[&quot;registry.terraform.io/grafana/grafana&quot;] (close)&#45;&gt;[root] grafana_team.admins (expand) -->
<g id="edge6" class="edge">
<title>[root] provider["registry.terraform.io/grafana/grafana"] (close)-&gt;[root] grafana_team.admins (expand)</title>
<path fill="none" stroke="#000000" d="M377.1923,-215.8314C384.5224,-207.454 393.3607,-197.3531 401.3916,-188.1749"/>
<polygon fill="#000000" stroke="#000000" points="404.232,-190.2438 408.1831,-180.4133 398.964,-185.6343 404.232,-190.2438"/>
</g>
<!-- [root] root -->
<g id="node7" class="node">
<title>[root] root</title>
<ellipse fill="none" stroke="#000000" cx="361.2947" cy="-306" rx="50.9823" ry="18"/>
<text text-anchor="middle" x="361.2947" y="-301.8" font-family="Times,serif" font-size="14.00" fill="#000000">[root] root</text>
</g>
<!-- [root] root&#45;&gt;[root] provider[&quot;registry.terraform.io/grafana/grafana&quot;] (close) -->
<g id="edge7" class="edge">
<title>[root] root-&gt;[root] provider["registry.terraform.io/grafana/grafana"] (close)</title>
<path fill="none" stroke="#000000" d="M361.2947,-287.8314C361.2947,-280.131 361.2947,-270.9743 361.2947,-262.4166"/>
<polygon fill="#000000" stroke="#000000" points="364.7948,-262.4132 361.2947,-252.4133 357.7948,-262.4133 364.7948,-262.4132"/>
</g>
</g>
</svg>