<?xml version="1.0" encoding="UTF-8" standalone="no"?><!DOCTYPE svg PUBLIC "-//W3C//DTD SVG 1.1//EN" "http://www.w3.org/Graphics/SVG/1.1/DTD/svg11.dtd"><!-- Generated by graphviz version 2.40.1 (20161225.0304)
 --><!-- Title: %0 Pages: 1 --><svg xmlns="http://www.w3.org/2000/svg" xmlns:xlink="http://www.w3.org/1999/xlink" width="666pt" height="260pt" viewBox="0.00 0.00 666.03 260.00">
<g id="graph0" class="graph" transform="scale(1 1) rotate(0) translate(4 256)">
<title>%0</title>
<polygon fill="#ffffff" stroke="transparent" points="-4,4 -4,-256 662.0342,-256 662.0342,4 -4,4"/>
<!-- [root] data.grafana_user.admin (expand) -->
<g id="node1" class="node">
<title>[root] data.grafana_user.admin (expand)</title>
<polygon fill="none" stroke="#000000" points="277.8956,-108 124.6938,-108 124.6938,-72 277.8956,-72 277.8956,-108"/>
<text text-anchor="middle" x="201.2947" y="-85.8" font-family="Times,serif" font-size="14.00" fill="#000000">data.grafana_user.admin</text>
</g>
<!-- [root] provider[&quot;registry.terraform.io/grafana/grafana&quot;] -->
<g id="node4" class="node">
<title>[root] provider["registry.terraform.io/grafana/grafana"]</title>
<polygon fill="none" stroke="#000000" points="282.2947,-36 .2052,-18 282.2947,0 564.3842,-18 282.2947,-36"/>
<text text-anchor="middle" x="282.2947" y="-13.8" font-family="Times,serif" font-size="14.00" fill="#000000">provider["registry.terraform.io/grafana/grafana"]</text>
</g>
<!-- [root] data.grafana_user.admin (expand)&#45;&gt;[root] provider[&quot;registry.terraform.io/grafana/grafana&quot;] -->
<g id="edge1" class="edge">
<title>[root] data.grafana_user.admin (expand)-&gt;[root] provider["registry.terraform.io/grafana/grafana"]</title>
<path fill="none" stroke="#000000" d="M221.7344,-71.8314C231.9923,-62.7132 244.5471,-51.5534 255.5605,-41.7637"/>
<polygon fill="#000000" stroke="#000000" points="258.1038,-44.1859 263.2526,-34.9263 253.4532,-38.954 258.1038,-44.1859"/>
</g>
<!-- [root] grafana_team.admins (expand) -->
<g id="node2" class="node">
<title>[root] grafana_team.admins (expand)</title>
<polygon fill="none" stroke="#000000" points="432.4105,-108 296.1788,-108 296.1788,-72 432.4105,-72 432.4105,-108"/>
<text text-anchor="middle" x="364.2947" y="-85.8" font-family="Times,serif" font-size="14.00" fill="#000000">grafana_team.admins</text>
</g>
<!-- [root] grafana_team.admins (expand)&#45;&gt;[root] provider[&quot;registry.terraform.io/grafana/grafana&quot;] -->
<g id="edge2" class="edge">
<title>[root] grafana_team.admins (expand)-&gt;[root] provider["registry.terraform.io/grafana/grafana"]</title>
<path fill="none" stroke="#000000" d="M343.6026,-71.8314C333.2181,-62.7132 320.5083,-51.5534 309.3589,-41.7637"/>
<polygon fill="#000000" stroke="#000000" points="311.3956,-38.8943 301.5719,-34.9263 306.777,-44.1544 311.3956,-38.8943"/>
</g>
<!-- [root] grafana_user.najme (expand) -->
<g id="node3" class="node">
<title>[root] grafana_user.najme (expand)</title>
<polygon fill="none" stroke="#000000" points="576.2899,-108 450.2995,-108 450.2995,-72 576.2899,-72 576.2899,-108"/>
<text text-anchor="middle" x="513.2947" y="-85.8" font-family="Times,serif" font-size="14.00" fill="#000000">grafana_user.najme</text>
</g>
<!-- [root] grafana_user.najme (expand)&#45;&gt;[root] provider[&quot;registry.terraform.io/grafana/grafana&quot;] -->
<g id="edge3" class="edge">
<title>[root] grafana_user.najme (expand)-&gt;[root] provider["registry.terraform.io/grafana/grafana"]</title>
<path fill="none" stroke="#000000" d="M455.3018,-71.9243C420.1195,-60.9584 375.3796,-47.0135 340.2112,-36.0519"/>
<polygon fill="#000000" stroke="#000000" points="341.1502,-32.6785 330.5616,-33.0442 339.0671,-39.3615 341.1502,-32.6785"/>
</g>
<!-- [root] var.g_pass -->
<g id="node5" class="node">
<title>[root] var.g_pass</title>
<polygon fill="none" stroke="#000000" points="652.2752,-36 582.3142,-36 582.3142,0 658.2752,0 658.2752,-30 652.2752,-36"/>
<polyline fill="none" stroke="#000000" points="652.2752,-36 652.2752,-30 "/>
<polyline fill="none" stroke="#000000" points="658.2752,-30 652.2752,-30 "/>
<text text-anchor="middle" x="620.2947" y="-13.8" font-family="Times,serif" font-size="14.00" fill="#000000">var.g_pass</text>
</g>
<!-- [root] grafana_user.najme (expand)&#45;&gt;[root] var.g_pass -->
<g id="edge4" class="edge">
<title>[root] grafana_user.najme (expand)-&gt;[root] var.g_pass</title>
<path fill="none" stroke="#000000" d="M540.2953,-71.8314C553.7278,-62.7927 570.142,-51.7476 584.5986,-42.0198"/>
<polygon fill="#000000" stroke="#000000" points="586.9601,-44.6494 593.3027,-36.1628 583.0522,-38.8418 586.9601,-44.6494"/>
</g>
<!-- [root] provider[&quot;registry.terraform.io/grafana/grafana&quot;] (close) -->
<g id="node6" class="node">
<title>[root] provider["registry.terraform.io/grafana/grafana"] (close)</title>
<ellipse fill="none" stroke="#000000" cx="364.2947" cy="-162" rx="252.8936" ry="18"/>
<text text-anchor="middle" x="364.2947" y="-157.8" font-family="Times,serif" font-size="14.00" fill="#000000">[root] provider["registry.terraform.io/grafana/grafana"] (close)</text>
</g>
<!-- [root] provider[&quot;registry.terraform.io/grafana/grafana&quot;] (close)&#45;&gt;[root] data.grafana_user.admin (expand) -->
<g id="edge5" class="edge">
<title>[root] provider["registry.terraform.io/grafana/grafana"] (close)-&gt;[root] data.grafana_user.admin (expand)</title>
<path fill="none" stroke="#000000" d="M324.0026,-144.2022C302.1277,-134.5397 274.8782,-122.5031 251.618,-112.2287"/>
<polygon fill="#000000" stroke="#000000" points="252.8171,-108.9321 242.2555,-108.0931 249.9887,-115.3353 252.8171,-108.9321"/>
</g>
<!-- [root] provider[&quot;registry.terraform.io/grafana/grafana&quot;] (close)&#45;&gt;[root] grafana_team.admins (expand) -->
<g id="edge6" class="edge">
<title>[root] provider["registry.terraform.io/grafana/grafana"] (close)-&gt;[root] grafana_team.admins (expand)</title>
<path fill="none" stroke="#000000" d="M364.2947,-143.8314C364.2947,-136.131 364.2947,-126.9743 364.2947,-118.4166"/>
<polygon fill="#000000" stroke="#000000" points="367.7948,-118.4132 364.2947,-108.4133 360.7948,-118.4133 367.7948,-118.4132"/>
</g>
<!-- [root] provider[&quot;registry.terraform.io/grafana/grafana&quot;] (close)&#45;&gt;[root] grafana_user.najme (expand) -->
<g id="edge7" class="edge">
<title>[root] provider["registry.terraform.io/grafana/grafana"] (close)-&gt;[root] grafana_user.najme (expand)</title>
<path fill="none" stroke="#000000" d="M401.5093,-144.0171C421.3319,-134.4384 445.8994,-122.5668 466.9504,-112.3946"/>
<polygon fill="#000000" stroke="#000000" points="468.557,-115.5055 476.0381,-108.0032 465.5114,-109.2028 468.557,-115.5055"/>
</g>
<!-- [root] root -->
<g id="node7" class="node">
<title>[root] root</title>
<ellipse fill="none" stroke="#000000" cx="364.2947" cy="-234" rx="50.9823" ry="18"/>
<text text-anchor="middle" x="364.2947" y="-229.8" font-family="Times,serif" font-size="14.00" fill="#000000">[root] root</text>
</g>
<!-- [root] root&#45;&gt;[root] provider[&quot;registry.terraform.io/grafana/grafana&quot;] (close) -->
<g id="edge8" class="edge">
<title>[root] root-&gt;[root] provider["registry.terraform.io/grafana/grafana"] (close)</title>
<path fill="none" stroke="#000000" d="M364.2947,-215.8314C364.2947,-208.131 364.2947,-198.9743 364.2947,-190.4166"/>
<polygon fill="#000000" stroke="#000000" points="367.7948,-190.4132 364.2947,-180.4133 360.7948,-190.4133 367.7948,-190.4132"/>
</g>
</g>
</svg>